<svg width="32" height="32" viewBox="0 0 32 32" xmlns="http://www.w3.org/2000/svg">
  <defs>
    <linearGradient id="cyan-glow-favicon" x1="0" y1="0" x2="1" y2="1">
      <stop offset="0" stop-color="#00FFF0" />
      <stop offset="1" stop-color="#00C8FF" />
    </linearGradient>
  </defs>
  
  <!-- Background circle -->
  <circle cx="16" cy="16" r="15" fill="url(#cyan-glow-favicon)" stroke="#1e293b" stroke-width="1"/>
  
  <!-- Gear body -->
  <circle cx="16" cy="16" r="7" fill="none" stroke="#1e293b" stroke-width="1.5"/>
  
  <!-- Gear teeth -->
  <g stroke="#1e293b" stroke-width="1.5" stroke-linecap="round" stroke-linejoin="round" fill="none">
    <path d="M4 10 L 6 9" />
    <path d="M6 7 L 8 6" />
    <path d="M24 10 L 26 9" />
    <path d="M26 7 L 28 6" />
    <path d="M4 22 L 6 23" />
    <path d="M6 25 L 8 26" />
    <path d="M24 22 L 26 23" />
    <path d="M26 25 L 28 26" />
  </g>
  
  <!-- Hollow center -->
  <circle cx="16" cy="16" r="2.5" fill="none" stroke="#1e293b" stroke-width="1"/>
  
  <!-- Lightning bolt -->
  <polygon points="14,8 18,12 16,12 20,20 14,16 16,16 14,8" fill="#1e293b" transform="rotate(-10 16 16)"/>
</svg>
